<?xml version="1.0" encoding="UTF-8"?>
<svg xmlns="http://www.w3.org/2000/svg" xmlns:xlink="http://www.w3.org/1999/xlink" width="14pt" height="14pt" viewBox="0 0 14 14" version="1.1">
<defs>
<linearGradient id="linear0" gradientUnits="userSpaceOnUse" x1="46" y1="11" x2="29" y2="52" gradientTransform="matrix(0.202417,0,0,0.202417,0,0)">
<stop offset="0" style="stop-color:rgb(16.470588%,67.058824%,93.333333%);stop-opacity:1;"/>
<stop offset="1" style="stop-color:rgb(13.333333%,61.960784%,85.098039%);stop-opacity:1;"/>
</linearGradient>
</defs>
<g id="surface1">
<path style=" stroke:none;fill-rule:nonzero;fill:url(#linear0);" d="M 14.007812 7.003906 C 14.007812 10.871094 10.871094 14.007812 7.003906 14.007812 C 3.136719 14.007812 0 10.871094 0 7.003906 C 0 3.136719 3.136719 0 7.003906 0 C 10.871094 0 14.007812 3.136719 14.007812 7.003906 Z M 14.007812 7.003906 "/>
<path style=" stroke:none;fill-rule:nonzero;fill:rgb(100%,100%,100%);fill-opacity:1;" d="M 9.675781 4.148438 C 9.675781 4.148438 10.402344 3.867188 10.34375 4.554688 C 10.324219 4.835938 10.140625 5.828125 10 6.902344 L 9.511719 10.082031 C 9.511719 10.082031 9.472656 10.546875 9.109375 10.625 C 8.746094 10.707031 8.199219 10.34375 8.097656 10.261719 C 8.015625 10.203125 6.578125 9.289062 6.074219 8.84375 C 5.929688 8.722656 5.769531 8.480469 6.09375 8.199219 L 8.21875 6.171875 C 8.460938 5.929688 8.703125 5.363281 7.691406 6.050781 L 4.859375 7.976562 C 4.859375 7.976562 4.535156 8.175781 3.925781 7.996094 L 2.609375 7.589844 C 2.609375 7.589844 2.125 7.285156 2.957031 6.984375 C 4.980469 6.03125 7.46875 5.058594 9.675781 4.148438 Z M 9.675781 4.148438 "/>
</g>
</svg>
